<mxfile host="app.diagrams.net" modified="2022-01-09T07:56:41.749Z" agent="5.0 (Windows NT 10.0; Win64; x64) AppleWebKit/537.36 (KHTML, like Gecko) Chrome/97.0.4692.71 Safari/537.36" etag="jAN25ZpK44rM3m8rng2l" version="16.2.4" type="github">
  <diagram id="FF0EXkj0HowfJeJrYnVO" name="Page-1">
    <mxGraphModel dx="1483" dy="770" grid="1" gridSize="10" guides="1" tooltips="1" connect="1" arrows="1" fold="1" page="1" pageScale="1" pageWidth="291" pageHeight="413" math="0" shadow="0">
      <root>
        <mxCell id="0" />
        <mxCell id="1" parent="0" />
        <mxCell id="e_SNH5t5A2qQzunHnWLV-1" value="Hệ thống quản lí sinh viên&#xa;" style="swimlane;startSize=23;" vertex="1" parent="1">
          <mxGeometry x="210" y="320" width="700" height="670" as="geometry" />
        </mxCell>
        <mxCell id="e_SNH5t5A2qQzunHnWLV-34" value="" style="edgeStyle=orthogonalEdgeStyle;rounded=0;orthogonalLoop=1;jettySize=auto;html=1;endArrow=none;endFill=0;" edge="1" parent="e_SNH5t5A2qQzunHnWLV-1" source="e_SNH5t5A2qQzunHnWLV-14" target="e_SNH5t5A2qQzunHnWLV-33">
          <mxGeometry relative="1" as="geometry" />
        </mxCell>
        <mxCell id="e_SNH5t5A2qQzunHnWLV-36" value="" style="edgeStyle=orthogonalEdgeStyle;rounded=0;orthogonalLoop=1;jettySize=auto;html=1;endArrow=none;endFill=0;" edge="1" parent="e_SNH5t5A2qQzunHnWLV-1" source="e_SNH5t5A2qQzunHnWLV-14" target="e_SNH5t5A2qQzunHnWLV-35">
          <mxGeometry relative="1" as="geometry">
            <Array as="points">
              <mxPoint x="123" y="330" />
            </Array>
          </mxGeometry>
        </mxCell>
        <mxCell id="e_SNH5t5A2qQzunHnWLV-14" value="Actor" style="shape=umlActor;verticalLabelPosition=bottom;verticalAlign=top;html=1;outlineConnect=0;" vertex="1" parent="e_SNH5t5A2qQzunHnWLV-1">
          <mxGeometry x="40" y="300" width="30" height="60" as="geometry" />
        </mxCell>
        <mxCell id="e_SNH5t5A2qQzunHnWLV-49" value="" style="edgeStyle=orthogonalEdgeStyle;rounded=0;orthogonalLoop=1;jettySize=auto;html=1;endArrow=none;endFill=0;" edge="1" parent="e_SNH5t5A2qQzunHnWLV-1" source="e_SNH5t5A2qQzunHnWLV-17" target="e_SNH5t5A2qQzunHnWLV-48">
          <mxGeometry relative="1" as="geometry">
            <Array as="points">
              <mxPoint x="341" y="160" />
              <mxPoint x="341" y="380" />
            </Array>
          </mxGeometry>
        </mxCell>
        <mxCell id="e_SNH5t5A2qQzunHnWLV-17" value="Quàn lí sinh viên" style="ellipse;whiteSpace=wrap;html=1;" vertex="1" parent="e_SNH5t5A2qQzunHnWLV-1">
          <mxGeometry x="123" y="120" width="120" height="80" as="geometry" />
        </mxCell>
        <mxCell id="e_SNH5t5A2qQzunHnWLV-51" value="" style="edgeStyle=orthogonalEdgeStyle;rounded=0;orthogonalLoop=1;jettySize=auto;html=1;endArrow=none;endFill=0;entryX=0;entryY=0.5;entryDx=0;entryDy=0;" edge="1" parent="e_SNH5t5A2qQzunHnWLV-1" source="e_SNH5t5A2qQzunHnWLV-18" target="e_SNH5t5A2qQzunHnWLV-45">
          <mxGeometry relative="1" as="geometry" />
        </mxCell>
        <mxCell id="e_SNH5t5A2qQzunHnWLV-57" value="" style="edgeStyle=orthogonalEdgeStyle;rounded=0;orthogonalLoop=1;jettySize=auto;html=1;endArrow=none;endFill=0;entryX=0;entryY=0.5;entryDx=0;entryDy=0;" edge="1" parent="e_SNH5t5A2qQzunHnWLV-1" source="e_SNH5t5A2qQzunHnWLV-18" target="e_SNH5t5A2qQzunHnWLV-46">
          <mxGeometry relative="1" as="geometry" />
        </mxCell>
        <mxCell id="e_SNH5t5A2qQzunHnWLV-60" style="edgeStyle=orthogonalEdgeStyle;rounded=0;orthogonalLoop=1;jettySize=auto;html=1;entryX=0.356;entryY=0.679;entryDx=0;entryDy=0;entryPerimeter=0;endArrow=none;endFill=0;" edge="1" parent="e_SNH5t5A2qQzunHnWLV-1" source="e_SNH5t5A2qQzunHnWLV-18" target="e_SNH5t5A2qQzunHnWLV-56">
          <mxGeometry relative="1" as="geometry" />
        </mxCell>
        <mxCell id="e_SNH5t5A2qQzunHnWLV-18" value="Quản lí môn học&lt;br&gt;" style="ellipse;whiteSpace=wrap;html=1;" vertex="1" parent="e_SNH5t5A2qQzunHnWLV-1">
          <mxGeometry x="123" y="525" width="117" height="80" as="geometry" />
        </mxCell>
        <mxCell id="e_SNH5t5A2qQzunHnWLV-32" value="" style="edgeStyle=orthogonalEdgeStyle;rounded=0;orthogonalLoop=1;jettySize=auto;html=1;endArrow=none;endFill=0;" edge="1" parent="e_SNH5t5A2qQzunHnWLV-1" source="e_SNH5t5A2qQzunHnWLV-19" target="e_SNH5t5A2qQzunHnWLV-31">
          <mxGeometry relative="1" as="geometry" />
        </mxCell>
        <mxCell id="e_SNH5t5A2qQzunHnWLV-19" value="UC1.Thêm sinh viên" style="ellipse;whiteSpace=wrap;html=1;" vertex="1" parent="e_SNH5t5A2qQzunHnWLV-1">
          <mxGeometry x="383" y="30" width="120" height="40" as="geometry" />
        </mxCell>
        <mxCell id="e_SNH5t5A2qQzunHnWLV-20" value="UC2.Sửa sinh viên" style="ellipse;whiteSpace=wrap;html=1;" vertex="1" parent="e_SNH5t5A2qQzunHnWLV-1">
          <mxGeometry x="383" y="110" width="120" height="40" as="geometry" />
        </mxCell>
        <mxCell id="e_SNH5t5A2qQzunHnWLV-26" value="" style="edgeStyle=orthogonalEdgeStyle;rounded=0;orthogonalLoop=1;jettySize=auto;html=1;endArrow=none;endFill=0;" edge="1" parent="e_SNH5t5A2qQzunHnWLV-1" source="e_SNH5t5A2qQzunHnWLV-21" target="e_SNH5t5A2qQzunHnWLV-25">
          <mxGeometry relative="1" as="geometry" />
        </mxCell>
        <mxCell id="e_SNH5t5A2qQzunHnWLV-21" value="UC3.Xóa sinh viên" style="ellipse;whiteSpace=wrap;html=1;" vertex="1" parent="e_SNH5t5A2qQzunHnWLV-1">
          <mxGeometry x="383" y="200" width="120" height="40" as="geometry" />
        </mxCell>
        <mxCell id="e_SNH5t5A2qQzunHnWLV-22" value="UC4.&lt;br&gt;Hiển thị thông tin sinh viên" style="ellipse;whiteSpace=wrap;html=1;" vertex="1" parent="e_SNH5t5A2qQzunHnWLV-1">
          <mxGeometry x="383" y="260" width="120" height="50" as="geometry" />
        </mxCell>
        <mxCell id="e_SNH5t5A2qQzunHnWLV-28" value="" style="edgeStyle=orthogonalEdgeStyle;rounded=0;orthogonalLoop=1;jettySize=auto;html=1;endArrow=none;endFill=0;" edge="1" parent="e_SNH5t5A2qQzunHnWLV-1" source="e_SNH5t5A2qQzunHnWLV-24" target="e_SNH5t5A2qQzunHnWLV-20">
          <mxGeometry relative="1" as="geometry" />
        </mxCell>
        <mxCell id="e_SNH5t5A2qQzunHnWLV-24" value="Sửa tên, địa chỉ số điện thoại, môn học,&lt;br&gt;điểm số&lt;br&gt;" style="ellipse;whiteSpace=wrap;html=1;" vertex="1" parent="e_SNH5t5A2qQzunHnWLV-1">
          <mxGeometry x="550" y="60" width="120" height="80" as="geometry" />
        </mxCell>
        <mxCell id="e_SNH5t5A2qQzunHnWLV-25" value="-Xóa sinh viên&lt;br&gt;-Xóa điểm số của sinh viên đó&lt;br&gt;" style="ellipse;whiteSpace=wrap;html=1;" vertex="1" parent="e_SNH5t5A2qQzunHnWLV-1">
          <mxGeometry x="580" y="180" width="120" height="80" as="geometry" />
        </mxCell>
        <mxCell id="e_SNH5t5A2qQzunHnWLV-37" value="" style="edgeStyle=orthogonalEdgeStyle;rounded=0;orthogonalLoop=1;jettySize=auto;html=1;endArrow=none;endFill=0;entryX=0;entryY=0.5;entryDx=0;entryDy=0;" edge="1" parent="e_SNH5t5A2qQzunHnWLV-1" target="e_SNH5t5A2qQzunHnWLV-20">
          <mxGeometry relative="1" as="geometry">
            <mxPoint x="293" y="160" as="sourcePoint" />
            <Array as="points">
              <mxPoint x="243" y="160" />
              <mxPoint x="343" y="160" />
              <mxPoint x="343" y="130" />
            </Array>
          </mxGeometry>
        </mxCell>
        <mxCell id="e_SNH5t5A2qQzunHnWLV-40" value="" style="edgeStyle=orthogonalEdgeStyle;rounded=0;orthogonalLoop=1;jettySize=auto;html=1;endArrow=none;endFill=0;entryX=0;entryY=0.5;entryDx=0;entryDy=0;" edge="1" parent="e_SNH5t5A2qQzunHnWLV-1" source="e_SNH5t5A2qQzunHnWLV-31" target="e_SNH5t5A2qQzunHnWLV-22">
          <mxGeometry relative="1" as="geometry">
            <Array as="points">
              <mxPoint x="243" y="285" />
            </Array>
          </mxGeometry>
        </mxCell>
        <mxCell id="e_SNH5t5A2qQzunHnWLV-31" value="" style="shape=waypoint;sketch=0;size=6;pointerEvents=1;points=[];fillColor=default;resizable=0;rotatable=0;perimeter=centerPerimeter;snapToPoint=1;" vertex="1" parent="e_SNH5t5A2qQzunHnWLV-1">
          <mxGeometry x="223" y="140" width="40" height="40" as="geometry" />
        </mxCell>
        <mxCell id="e_SNH5t5A2qQzunHnWLV-33" value="" style="shape=waypoint;sketch=0;size=6;pointerEvents=1;points=[];fillColor=default;resizable=0;rotatable=0;perimeter=centerPerimeter;snapToPoint=1;verticalAlign=top;" vertex="1" parent="e_SNH5t5A2qQzunHnWLV-1">
          <mxGeometry x="103" y="140" width="40" height="40" as="geometry" />
        </mxCell>
        <mxCell id="e_SNH5t5A2qQzunHnWLV-35" value="" style="shape=waypoint;sketch=0;size=6;pointerEvents=1;points=[];fillColor=default;resizable=0;rotatable=0;perimeter=centerPerimeter;snapToPoint=1;verticalAlign=top;" vertex="1" parent="e_SNH5t5A2qQzunHnWLV-1">
          <mxGeometry x="103" y="545" width="40" height="40" as="geometry" />
        </mxCell>
        <mxCell id="e_SNH5t5A2qQzunHnWLV-29" value="- hiển thị theo mã sinh viên&lt;br&gt;-hiển thị theo tên" style="ellipse;whiteSpace=wrap;html=1;" vertex="1" parent="e_SNH5t5A2qQzunHnWLV-1">
          <mxGeometry x="550" y="320" width="120" height="80" as="geometry" />
        </mxCell>
        <mxCell id="e_SNH5t5A2qQzunHnWLV-30" value="" style="edgeStyle=orthogonalEdgeStyle;rounded=0;orthogonalLoop=1;jettySize=auto;html=1;endArrow=none;endFill=0;" edge="1" parent="e_SNH5t5A2qQzunHnWLV-1" source="e_SNH5t5A2qQzunHnWLV-22">
          <mxGeometry relative="1" as="geometry">
            <mxPoint x="623" y="320" as="targetPoint" />
            <Array as="points">
              <mxPoint x="623" y="285" />
              <mxPoint x="623" y="320" />
            </Array>
          </mxGeometry>
        </mxCell>
        <mxCell id="e_SNH5t5A2qQzunHnWLV-43" value="UC6.Thêm môn học&lt;span style=&quot;color: rgba(0 , 0 , 0 , 0) ; font-family: monospace ; font-size: 0px&quot;&gt;%3CmxGraphModel%3E%3Croot%3E%3CmxCell%20id%3D%220%22%2F%3E%3CmxCell%20id%3D%221%22%20parent%3D%220%22%2F%3E%3CmxCell%20id%3D%222%22%20value%3D%22UC1.Th%C3%AAm%20sinh%20vi%C3%AAn%22%20style%3D%22ellipse%3BwhiteSpace%3Dwrap%3Bhtml%3D1%3B%22%20vertex%3D%221%22%20parent%3D%221%22%3E%3CmxGeometry%20x%3D%22387%22%20y%3D%2290%22%20width%3D%22120%22%20height%3D%2240%22%20as%3D%22geometry%22%2F%3E%3C%2FmxCell%3E%3C%2Froot%3E%3C%2FmxGraphModel%3E&lt;/span&gt;" style="ellipse;whiteSpace=wrap;html=1;" vertex="1" parent="e_SNH5t5A2qQzunHnWLV-1">
          <mxGeometry x="392" y="420" width="120" height="40" as="geometry" />
        </mxCell>
        <mxCell id="e_SNH5t5A2qQzunHnWLV-44" value="UC7.Sửa môn học&lt;span style=&quot;color: rgba(0 , 0 , 0 , 0) ; font-family: monospace ; font-size: 0px&quot;&gt;%3CmxGraphModel%3E%3Croot%3E%3CmxCell%20id%3D%220%22%2F%3E%3CmxCell%20id%3D%221%22%20parent%3D%220%22%2F%3E%3CmxCell%20id%3D%222%22%20value%3D%22UC1.Th%C3%AAm%20sinh%20vi%C3%AAn%22%20style%3D%22ellipse%3BwhiteSpace%3Dwrap%3Bhtml%3D1%3B%22%20vertex%3D%221%22%20parent%3D%221%22%3E%3CmxGeometry%20x%3D%22387%22%20y%3D%2290%22%20width%3D%22120%22%20height%3D%2240%22%20as%3D%22geometry%22%2F%3E%3C%2FmxCell%3E%3C%2Froot%3E%3C%2FmxGraphModel%3E&lt;/span&gt;" style="ellipse;whiteSpace=wrap;html=1;" vertex="1" parent="e_SNH5t5A2qQzunHnWLV-1">
          <mxGeometry x="392" y="490" width="120" height="40" as="geometry" />
        </mxCell>
        <mxCell id="e_SNH5t5A2qQzunHnWLV-45" value="UC8.Hiển thị thông tin môn học" style="ellipse;whiteSpace=wrap;html=1;" vertex="1" parent="e_SNH5t5A2qQzunHnWLV-1">
          <mxGeometry x="389" y="544.5" width="123" height="64.5" as="geometry" />
        </mxCell>
        <mxCell id="e_SNH5t5A2qQzunHnWLV-62" style="edgeStyle=orthogonalEdgeStyle;rounded=0;orthogonalLoop=1;jettySize=auto;html=1;entryX=0;entryY=0.5;entryDx=0;entryDy=0;endArrow=none;endFill=0;" edge="1" parent="e_SNH5t5A2qQzunHnWLV-1" source="e_SNH5t5A2qQzunHnWLV-46">
          <mxGeometry relative="1" as="geometry">
            <mxPoint x="601" y="565.875" as="targetPoint" />
          </mxGeometry>
        </mxCell>
        <mxCell id="e_SNH5t5A2qQzunHnWLV-46" value="UC9.Xóa môn học&lt;span style=&quot;color: rgba(0 , 0 , 0 , 0) ; font-family: monospace ; font-size: 0px&quot;&gt;%3CmxGraphModel%3E%3Croot%3E%3CmxCell%20id%3D%220%22%2F%3E%3CmxCell%20id%3D%221%22%20parent%3D%220%22%2F%3E%3CmxCell%20id%3D%222%22%20value%3D%22UC1.S%E1%BB%ADa%20m%C3%B4n%20h%E1%BB%8Dc%26lt%3Bspan%20style%3D%26quot%3Bcolor%3A%20rgba(0%20%2C%200%20%2C%200%20%2C%200)%20%3B%20font-family%3A%20monospace%20%3B%20font-size%3A%200px%26quot%3B%26gt%3B%253CmxGraphModel%253E%253Croot%253E%253CmxCell%2520id%253D%25220%2522%252F%253E%253CmxCell%2520id%253D%25221%2522%2520parent%253D%25220%2522%252F%253E%253CmxCell%2520id%253D%25222%2522%2520value%253D%2522UC1.Th%25C3%25AAm%2520sinh%2520vi%25C3%25AAn%2522%2520style%253D%2522ellipse%253BwhiteSpace%253Dwrap%253Bhtml%253D1%253B%2522%2520vertex%253D%25221%2522%2520parent%253D%25221%2522%253E%253CmxGeometry%2520x%253D%2522387%2522%2520y%253D%252290%2522%2520width%253D%2522120%2522%2520height%253D%252240%2522%2520as%253D%2522geometry%2522%252F%253E%253C%252FmxCell%253E%253C%252Froot%253E%253C%252FmxGraphModel%253E%26lt%3B%2Fspan%26gt%3B%22%20style%3D%22ellipse%3BwhiteSpace%3Dwrap%3Bhtml%3D1%3B%22%20vertex%3D%221%22%20parent%3D%221%22%3E%3CmxGeometry%20x%3D%22400%22%20y%3D%22460%22%20width%3D%22120%22%20height%3D%2240%22%20as%3D%22geometry%22%2F%3E%3C%2FmxCell%3E%3C%2Froot%3E%3C%2FmxGraphModel%3E&lt;/span&gt;&lt;br&gt;&lt;span style=&quot;color: rgba(0 , 0 , 0 , 0) ; font-family: monospace ; font-size: 0px&quot;&gt;%3CmxGraphModel%3E%3Croot%3E%3CmxCell%20id%3D%220%22%2F%3E%3CmxCell%20id%3D%221%22%20parent%3D%220%22%2F%3E%3CmxCell%20id%3D%222%22%20value%3D%22UC1.Th%C3%AAm%20sinh%20vi%C3%AAn%22%20style%3D%22ellipse%3BwhiteSpace%3Dwrap%3Bhtml%3D1%3B%22%20vertex%3D%221%22%20parent%3D%221%22%3E%3CmxGeometry%20x%3D%22387%22%20y%3D%2290%22%20width%3D%22120%22%20height%3D%2240%22%20as%3D%22geometry%22%2F%3E%3C%2FmxCell%3E%3C%2Froot%3E%3C%2FmxGraphModel%3E&lt;/span&gt;" style="ellipse;whiteSpace=wrap;html=1;" vertex="1" parent="e_SNH5t5A2qQzunHnWLV-1">
          <mxGeometry x="392" y="620" width="120" height="40" as="geometry" />
        </mxCell>
        <mxCell id="e_SNH5t5A2qQzunHnWLV-47" value="UC5. &lt;br&gt;Tính điểm trung bình và xếp loại sinh viên" style="ellipse;whiteSpace=wrap;html=1;" vertex="1" parent="e_SNH5t5A2qQzunHnWLV-1">
          <mxGeometry x="383" y="340" width="120" height="70" as="geometry" />
        </mxCell>
        <mxCell id="e_SNH5t5A2qQzunHnWLV-48" value="" style="shape=waypoint;sketch=0;size=6;pointerEvents=1;points=[];fillColor=default;resizable=0;rotatable=0;perimeter=centerPerimeter;snapToPoint=1;" vertex="1" parent="e_SNH5t5A2qQzunHnWLV-1">
          <mxGeometry x="365" y="360" width="40" height="40" as="geometry" />
        </mxCell>
        <mxCell id="e_SNH5t5A2qQzunHnWLV-54" value="" style="edgeStyle=orthogonalEdgeStyle;rounded=0;orthogonalLoop=1;jettySize=auto;html=1;endArrow=none;endFill=0;" edge="1" parent="e_SNH5t5A2qQzunHnWLV-1" source="e_SNH5t5A2qQzunHnWLV-50" target="e_SNH5t5A2qQzunHnWLV-53">
          <mxGeometry relative="1" as="geometry" />
        </mxCell>
        <mxCell id="e_SNH5t5A2qQzunHnWLV-50" value="" style="shape=waypoint;sketch=0;size=6;pointerEvents=1;points=[];fillColor=default;resizable=0;rotatable=0;perimeter=centerPerimeter;snapToPoint=1;" vertex="1" parent="e_SNH5t5A2qQzunHnWLV-1">
          <mxGeometry x="374" y="420" width="40" height="40" as="geometry" />
        </mxCell>
        <mxCell id="e_SNH5t5A2qQzunHnWLV-53" value="" style="shape=waypoint;sketch=0;size=6;pointerEvents=1;points=[];fillColor=default;resizable=0;rotatable=0;perimeter=centerPerimeter;snapToPoint=1;" vertex="1" parent="e_SNH5t5A2qQzunHnWLV-1">
          <mxGeometry x="223" y="545" width="40" height="40" as="geometry" />
        </mxCell>
        <mxCell id="e_SNH5t5A2qQzunHnWLV-56" value="" style="shape=waypoint;sketch=0;size=6;pointerEvents=1;points=[];fillColor=default;resizable=0;rotatable=0;perimeter=centerPerimeter;snapToPoint=1;" vertex="1" parent="e_SNH5t5A2qQzunHnWLV-1">
          <mxGeometry x="374" y="490" width="40" height="40" as="geometry" />
        </mxCell>
        <mxCell id="e_SNH5t5A2qQzunHnWLV-61" value="Xóa môn học&amp;nbsp;&lt;br&gt;-Xóa điểm số của môn học dó&lt;br&gt;" style="ellipse;whiteSpace=wrap;html=1;" vertex="1" parent="e_SNH5t5A2qQzunHnWLV-1">
          <mxGeometry x="560" y="523.25" width="120" height="61.75" as="geometry" />
        </mxCell>
      </root>
    </mxGraphModel>
  </diagram>
</mxfile>
